# xmcd
#
# Track frame offsets:
#	150
#	18265
#	35762
#	56547
#	68687
#	88404
#	107662
#	122432
#	139377
#	151722
#	167400
#	180330
#
# Disc length: 2604 seconds
#
# Revision: 0
# Processed by: cddbd v1.4PL0 Copyright (c) Steve Scherf et al.
# Submitted via: EasyCDDAExtractor 5.0.5.1
#
DISCID=930a2a0c
DTITLE=Milton Nascimento - MPB Contepoâneo  Vol. 19
DYEAR=1900
DGENRE=Pop
TTITLE0=Travesia
TTITLE1=Ponta de Areia
TTITLE2=Morro Velho
TTITLE3=Unencounter (Canção da América)
TTITLE4=Sentinela
TTITLE5=Maria, Maria
TTITLE6=Canção Do Sal
TTITLE7=Coração De Estudante
TTITLE8=Três Pontas
TTITLE9=Menestrel Das Alagoas
TTITLE10=Circo Marinbondo
TTITLE11=Aqui Eo Pais Do Futebol
EXTD=
EXTT0=
EXTT1=
EXTT2=
EXTT3=
EXTT4=
EXTT5=
EXTT6=
EXTT7=
EXTT8=
EXTT9=
EXTT10=
EXTT11=
PLAYORDER=
